# xmcd CD database file
#
# Track frame offsets:
#	150
#	23731
#	80337
#	100412
#	124384
#	149161
#	172818
#	194003
#	231881
#	249648
#	283636
#	307414
#
# Disc length: 4414 seconds
#
# Revision: 6
# Processed by: cddbd v1.5.1PL2 Copyright (c) Steve Scherf et al.
# Submitted via: CDex 1.50Beta7
#
DISCID=b5113c0c
DTITLE=Enigma - Best of (Pirated Album)
DYEAR=1995
DGENRE=New Age
TTITLE0=Beyond the Invisible
TTITLE1=Principles of Lust
TTITLE2=Return to Innocence
TTITLE3=Why!...
TTITLE4=Mea Culpa
TTITLE5=Out from Deep
TTITLE6=T.N.T. for the Brain
TTITLE7=Back to the Rivers of Belief
TTITLE8=The Roundabout
TTITLE9=The Eyes of Truth
TTITLE10=The Child in Us
TTITLE11=Light of Your Smile
EXTD=YEAR: 1995
EXTT0=
EXTT1=
EXTT2=
EXTT3=
EXTT4=
EXTT5=
EXTT6=
EXTT7=
EXTT8=
EXTT9=
EXTT10=
EXTT11=
PLAYORDER=
